<svg width="63" height="44" viewBox="0 0 63 44" fill="none" xmlns="http://www.w3.org/2000/svg">
<path d="M35 8.49982L35.9457 7.33549L35 8.49982ZM54.3292 43.8416C55.0701 44.212 55.9712 43.9117 56.3416 43.1707L62.379 31.096C62.7495 30.355 62.4492 29.454 61.7082 29.0835C60.9672 28.713 60.0662 29.0134 59.6957 29.7543L54.3292 40.4875L43.5961 35.1209C42.8551 34.7504 41.9541 35.0507 41.5836 35.7917C41.2131 36.5327 41.5134 37.4337 42.2544 37.8042L54.3292 43.8416ZM1.1331 3.89893C10.8834 3.03033 23.7198 1.27033 34.0543 9.66416L35.9457 7.33549C24.4903 -1.96878 10.2745 0.0726941 0.866901 0.910763L1.1331 3.89893ZM34.0543 9.66416C42.0348 16.1461 45.7415 21.1007 48.0322 26.0091C49.1888 28.4876 50.0032 30.994 50.8169 33.7661C51.6242 36.5164 52.4406 39.565 53.577 42.9743L56.423 42.0256C55.3094 38.6848 54.5271 35.7542 53.6954 32.9211C52.8702 30.1098 52.0053 27.4287 50.7507 24.7404C48.219 19.3154 44.1757 14.02 35.9457 7.33549L34.0543 9.66416Z" fill="#DDDDDD"/>
</svg>
