<svg width="55" height="52" viewBox="0 0 55 52" fill="none" xmlns="http://www.w3.org/2000/svg">
<path d="M17.5661 21.5169L16.6646 20.3181L17.5661 21.5169ZM54.0688 15.0189C54.7772 14.5893 55.0032 13.6669 54.5736 12.9585L47.5735 1.4152C47.1439 0.706849 46.2214 0.480845 45.5131 0.910407C44.8047 1.33997 44.5787 2.26244 45.0083 2.97079L51.2306 13.2315L40.9699 19.4539C40.2616 19.8834 40.0356 20.8059 40.4651 21.5142C40.8947 22.2226 41.8172 22.4486 42.5255 22.019L54.0688 15.0189ZM3.87548 51.467C5.29838 42.1007 7.82998 30.7152 18.4676 22.7158L16.6646 20.3181C5.01141 29.0811 2.34844 41.5445 0.90951 51.0164L3.87548 51.467ZM18.4676 22.7158C26.5954 16.6038 33.0647 14.2474 38.4945 13.6263C43.9477 13.0026 48.4931 14.1052 52.9341 15.1932L53.648 12.2794C49.227 11.1962 44.2016 9.95398 38.1536 10.6458C32.0822 11.3402 25.12 13.9597 16.6646 20.3181L18.4676 22.7158Z" fill="#DDDDDD"/>
</svg>
